<svg xmlns="http://www.w3.org/2000/svg" viewBox="0 0 487.47 111.31"><g id="Capa_2" data-name="Capa 2"><line x1="180.96" y1="55.66" x2="302.95" y2="55.66" style="fill:none;stroke:#82368c;stroke-linecap:round;stroke-miterlimit:10;stroke-width:5px"/><polygon points="309.23 55.66 296.67 48.41 296.67 62.91 309.23 55.66" style="fill:#82368c;stroke:#82368c;stroke-linecap:round;stroke-linejoin:round;stroke-width:5px"/></g><g id="Mexico"><rect x="2" y="2" width="52.96" height="107.31" rx="2.87" style="fill:#299049;stroke:#fff;stroke-miterlimit:10;stroke-width:4px"/><rect x="54.63" y="2" width="52.96" height="107.31" style="fill:#fff;stroke:#fff;stroke-miterlimit:10;stroke-width:4px"/><rect x="107.59" y="2" width="52.96" height="107.31" rx="2.11" style="fill:#dc0b2a;stroke:#fff;stroke-miterlimit:10;stroke-width:4px"/><circle cx="81.28" cy="52.99" r="15.78" style="fill:#f9b233;stroke:#fff;stroke-miterlimit:10;stroke-width:4px"/><path d="M67.49,109.8a19.57,19.57,0,0,0,39.13,0" transform="translate(-5.78 -55.69)" style="fill:none;stroke:#063;stroke-linecap:round;stroke-miterlimit:10;stroke-width:5px"/></g><g id="USA"><rect x="326.92" y="2" width="158.55" height="107.31" rx="3.55" style="fill:#fff;stroke:#fff;stroke-miterlimit:10;stroke-width:4px"/><rect x="335.97" y="8.04" width="56.25" height="44.94" style="fill:#3d5976"/><rect x="398.65" y="9.34" width="78.57" height="8.56" style="fill:#dc0b2a"/><rect x="398.65" y="43.36" width="78.57" height="8.56" style="fill:#dc0b2a"/><rect x="398.65" y="26.24" width="78.57" height="8.56" style="fill:#dc0b2a"/><rect x="335.97" y="60.39" width="141.25" height="8.56" style="fill:#dc0b2a"/><rect x="335.97" y="94.41" width="141.25" height="8.56" style="fill:#dc0b2a"/><rect x="335.97" y="77.29" width="141.25" height="8.56" style="fill:#dc0b2a"/></g></svg>