<?xml version="1.0" encoding="UTF-8"?>
<!DOCTYPE svg PUBLIC "-//W3C//DTD SVG 1.1//EN" "http://www.w3.org/Graphics/SVG/1.1/DTD/svg11.dtd">
<!-- Creator: CorelDRAW -->
<svg xmlns="http://www.w3.org/2000/svg" xml:space="preserve" width="26.4967in" height="3.45327in" version="1.1" style="shape-rendering:geometricPrecision; text-rendering:geometricPrecision; image-rendering:optimizeQuality; fill-rule:evenodd; clip-rule:evenodd"
viewBox="0 0 17186.24 2239.86"
 xmlns:xlink="http://www.w3.org/1999/xlink"
 xmlns:xodm="http://www.corel.com/coreldraw/odm/2003">
 <defs>
  <style type="text/css">
   <![CDATA[
    .fil0 {fill:#D281D3}
   ]]>
  </style>
 </defs>
 <g id="Capa_x0020_1">
  <metadata id="CorelCorpID_0Corel-Layer"/>
  <g id="_2041671797696">
   <path class="fil0" d="M12998.02 1828.89l5.55 -826.02c77.78,2.64 711.16,216.4 872.28,253.35l2.78 884.08c-5.56,0 -838.94,-269.18 -866.72,-292.93l-11.11 -10.55c0,-2.64 -2.78,-5.28 -2.78,-7.92zm1689 7.92c-83.34,50.14 -280.57,113.48 -386.14,155.7 -130.56,50.14 -261.13,97.65 -388.91,145.15 -11.11,-137.23 0,-720.46 0,-878.8l786.16 -258.63c25,105.56 -5.56,686.15 -11.11,836.58zm-775.05 -614.9l-2.78 -277.1 866.72 -261.26c2.78,255.98 22.22,245.43 -41.67,269.18 -13.89,7.92 -38.89,13.2 -55.56,18.47l-766.72 250.71zm-975.06 -533.09c113.9,2.64 741.71,216.4 938.95,255.99l2.78 279.74 -941.73 -282.38 0 -253.35zm97.23 -18.47c30.56,-15.83 741.71,-197.93 827.83,-213.76 69.45,-13.19 336.13,73.89 416.69,95l394.47 110.84c0,0 5.56,2.64 5.56,5.28 2.78,0 5.56,2.64 8.34,2.64l-94.45 36.95c-144.46,42.22 -661.15,216.4 -730.6,200.57 -83.34,-15.83 -788.94,-213.76 -827.83,-237.51zm1764 366.83c55.56,-42.23 72.23,0 72.23,-95 0,-316.68 30.56,-319.32 -80.56,-348.35 -169.46,-42.22 -841.72,-240.15 -902.83,-237.51 -52.78,0 -752.83,187.37 -919.5,229.6 -155.56,39.59 -122.23,2.64 -125.01,282.38 0,237.51 47.22,113.48 66.67,179.45l-5.55 791.71c0,97.65 41.67,89.73 119.45,116.12l491.7 163.62c108.34,36.95 216.68,76.53 327.8,110.84 72.23,23.75 100.01,0 161.12,-23.75l475.03 -182.09c55.56,-21.11 286.13,-92.36 300.02,-137.23 22.22,-71.25 11.11,-712.54 19.45,-849.77z"/>
   <path class="fil0" d="M15394.04 760.9c41.67,-5.28 238.91,50.14 277.8,71.25l-2.78 277.1 -275.02 -84.45 0 -263.9zm327.8 1303.68l0 -100.28 -322.24 -100.28 -2.78 -796.99 325.02 89.73 0 -364.19c-47.23,7.92 -205.57,-36.95 -244.46,-58.06l244.46 -73.89 0 -97.65c-91.67,23.75 -358.36,97.65 -416.69,129.31 -11.11,87.09 -8.33,1177.01 5.56,1229.79 38.89,29.03 338.91,124.03 411.14,142.51z"/>
   <path class="fil0" d="M3350.05 997.37l1475.09 2.64 0 1060.89 -1475.09 -2.64 0 -1060.89zm-158.34 -395.85l1791.78 2.64 2.78 361.55 -1797.34 2.64 2.78 -366.82zm-100 -13.19c0,583.23 -27.78,456.55 161.12,480.3 0,168.9 -19.45,987 8.34,1079.37l1577.88 10.56c66.67,0 83.34,-10.56 83.34,-76.53l0 -1016.03 152.79 -10.56c11.11,-92.36 19.45,-475.03 -5.56,-538.36 -77.78,-29.03 -1677.88,-13.2 -1900.12,-13.2 -75,0 -77.78,13.2 -77.78,84.45z"/>
   <path class="fil0" d="M3927.87 1451.29l113.9 0 8.33 58.06 141.68 -2.64 2.78 -58.06 116.67 2.64c-19.45,-42.22 -58.34,-79.17 -91.67,-116.12l-100.01 -113.48 -191.68 229.6z"/>
   <polygon class="fil0" points="3919.53,1599.08 4319.56,1599.08 4316.78,1541.02 3922.31,1541.02 "/>
   <path class="fil0" d="M3952.87 1691.44l363.91 0 2.78 -58.06 -400.03 0 0 42.23c27.78,18.47 -30.56,5.28 33.33,15.83z"/>
   <path class="fil0" d="M17087.25 1067.03l0 807.54 -811.16 253.35 0 -818.1 811.16 -242.79zm-1186.19 -174.18c58.33,10.56 122.23,29.03 183.34,47.5 44.45,10.56 136.12,18.47 161.12,58.06l0 277.1 -347.24 -97.64 2.78 -285.02zm744.49 -10.56c0,277.1 22.22,266.54 -41.67,290.3l-327.8 92.36 5.56 -282.38 363.91 -100.28zm441.69 -124.03l0 271.82 -233.35 65.98 0 -279.74 233.35 -58.06zm-1119.52 105.56c50,-26.39 258.35,-89.73 322.24,-102.92 52.78,-10.56 269.46,63.34 308.35,92.36 -27.78,15.83 -272.24,89.73 -313.91,92.37l-316.69 -81.81zm569.48 -174.17c91.67,-36.95 155.57,-63.34 247.24,-34.31 52.78,18.47 191.68,60.7 227.79,81.81 -83.34,39.58 -150.01,58.06 -241.68,26.39 -75,-23.75 -163.9,-44.86 -233.35,-73.89zm-427.81 -139.87c27.78,-18.47 147.23,-55.42 183.35,-50.14 27.78,2.64 144.45,42.23 177.79,55.42 -36.11,15.83 -152.79,55.42 -183.34,52.78 -41.67,0 -150.01,-39.59 -177.79,-58.06zm-419.47 18.47l0 100.28c213.9,-47.5 166.68,-87.09 386.14,5.28 -41.67,29.03 -325.02,113.48 -386.14,124.03l0 353.63 555.59 155.7 0 826.02 -555.59 -174.18 0 97.65c108.34,23.75 258.35,79.17 369.47,116.12 216.68,71.25 166.68,73.89 383.36,5.28 125.01,-39.59 247.24,-79.17 372.25,-118.76 97.23,-29.03 283.35,-81.81 358.36,-118.76 16.67,-84.45 16.67,-1150.62 2.78,-1250.9 -80.56,-39.59 -263.91,-89.73 -366.69,-121.4 -125.01,-42.22 -244.46,-81.81 -369.47,-124.03 -208.35,-65.98 -161.12,-44.86 -372.25,15.83 -119.45,34.31 -263.91,87.09 -377.8,108.2z"/>
   <path class="fil0" d="M5773.42 960.34l1258.66 0 0 1109.38 -1258.66 -5.23 0 -1104.14zm1098.92 -109.89c38.56,15.7 85.38,49.71 107.41,78.49l-107.41 0 0 -78.49zm-906.13 -28.78l840.03 0 38.56 2.61 0 104.66 -504.02 0 -374.57 0 0 -107.27zm-137.71 107.27c8.26,-10.46 5.51,-7.85 16.53,-18.31l90.89 -65.41 0 83.73 -107.42 0zm-8.26 -515.44l1167.78 2.61 -137.71 363.69 -900.62 0 -129.45 -366.3zm-11.02 -141.29l1187.05 0 2.76 109.89 -1195.32 -2.61 5.51 -107.27zm-112.92 1868.15c27.54,31.4 99.15,18.31 168.01,18.31 192.79,0 1220.11,13.08 1244.89,-13.08 27.54,-26.16 16.53,-978.55 19.28,-1153.86 0,-86.34 -22.03,-88.96 -74.36,-125.59 -30.3,-23.55 -77.12,-49.71 -101.91,-81.11 24.79,-115.12 217.58,-491.89 115.68,-586.09 -35.8,-41.86 -570.12,-18.31 -666.51,-18.31 -132.2,0 -589.4,-15.7 -677.53,10.46 -60.59,201.47 79.87,418.63 129.45,593.94 -44.07,49.71 -115.67,94.19 -168.01,128.21 -13.77,120.36 -13.77,1190.49 11.02,1227.12z"/>
   <g>
    <path class="fil0" d="M11310.54 1111.99c24.79,36.63 44.07,91.58 63.35,136.05 33.05,73.26 35.8,109.89 74.36,125.59 38.56,18.31 553.59,-138.67 649.99,-156.99l-5.51 538.99 -798.72 261.65 16.53 -905.29zm-38.56 5.23l-16.52 907.91c-195.55,-57.56 -435.16,-141.29 -636.22,-209.32 -38.56,-10.46 -71.61,-20.93 -110.17,-34.01 -60.59,-18.31 -82.62,-18.31 -90.89,-44.48l0 -531.14c140.46,23.55 644.48,183.15 729.86,170.07l123.94 -259.03zm63.35 -188.39c27.54,-18.31 729.86,-193.62 790.45,-196.23l159.74 340.14 -798.72 209.32 -151.48 -353.22zm-925.41 -185.77c88.13,0 319.49,62.8 418.64,86.34 140.46,28.78 280.93,65.41 421.39,91.58l-154.24 361.07c-77.12,-13.08 -815.24,-201.47 -837.27,-219.78l151.48 -319.21zm-261.65 387.24c90.89,44.48 168.01,23.55 181.78,68.03l0 617.48 864.82 285.19c82.62,26.16 71.61,26.16 154.23,-2.61 49.58,-18.31 101.9,-34.01 148.73,-49.71 195.55,-65.41 388.34,-128.21 583.89,-191 63.35,-18.31 96.4,-15.7 101.9,-81.11 11.02,-146.52 -2.75,-405.55 8.26,-586.09 66.1,-13.08 156.99,-36.63 203.81,-62.8 8.26,-70.64 -115.68,-287.81 -165.25,-397.7 -27.54,-65.41 -24.79,-75.88 -101.9,-91.58 -99.15,-18.31 -581.13,-112.51 -641.73,-109.89l-44.07 75.88 589.4 109.89c-71.61,26.17 -699.56,185.77 -743.63,183.15l-771.17 -177.92c99.15,-18.32 583.89,-91.58 636.22,-120.36 -13.77,-34.01 -24.79,-41.86 -38.56,-78.49 -212.07,23.55 -457.19,83.73 -674.78,120.35 -88.14,15.7 -79.87,5.23 -115.68,78.5 -49.58,102.04 -187.28,334.9 -176.27,410.78z"/>
    <path class="fil0" d="M11238.93 484.04l-107.42 -54.95c16.53,52.33 140.46,251.18 170.76,287.81 35.8,-41.86 148.73,-232.86 173.51,-285.19l-107.41 52.33 60.59 -481.43c-49.58,26.16 -74.36,75.88 -132.2,107.27l-118.43 -109.89 60.59 484.04z"/>
   </g>
   <path class="fil0" d="M6635.48 1520.26c-13.77,-75.88 -33.05,-81.11 -63.35,-130.82 -30.3,-44.48 2.76,-10.46 -16.52,-54.94 -19.28,-36.63 -2.75,-15.7 -22.03,-5.23l-19.28 13.08c-168.01,-83.73 -338.77,15.7 -363.55,175.3l228.6 0 -5.51 253.8c-93.64,-2.62 2.76,-7.85 -66.1,-31.4 -22.03,60.18 41.31,62.79 85.38,49.71 22.03,-54.95 13.77,-193.62 13.77,-272.11l228.6 2.62z"/>
   <path class="fil0" d="M739.03 1901.93c-186.12,-118.76 -380.58,-258.63 -577.82,-385.3 -75,-50.14 -61.12,-13.19 -61.12,-192.65l0 -720.46 330.58 213.76c55.56,36.95 294.46,179.45 311.13,226.96l-2.78 857.69zm88.89 121.4l0 -97.65 -52.78 0 0 -894.63 52.78 0 0 -34.31c-108.34,0 -116.67,-31.67 -188.9,-84.45l-313.91 -208.49c-44.45,-31.67 -111.12,-71.25 -147.23,-110.84l650.04 0 0 -97.64 -775.05 2.64c-36.11,7.92 -19.44,2.64 -38.89,23.75 -16.67,31.67 -19.45,952.69 -2.78,1005.47 13.89,29.03 594.48,403.77 683.38,467.11 55.56,36.95 55.56,29.03 133.34,29.03z"/>
   <polygon class="fil0" points="827.92,1031.04 775.14,1031.04 775.14,1925.68 827.92,1925.68 "/>
   <path class="fil0" d="M796.02 592.96c155.57,0 313.91,0 469.48,0 233.35,0 211.12,-29.03 388.91,71.26l583.37 319.32 -1441.76 13.19 0 34.31c177.79,0 1502.87,-18.47 1552.88,10.56l16.67 52.78c0,13.19 -2.78,39.58 -2.78,52.78l0 773.24 -1566.77 5.28 0 97.65c275.02,0 550.03,-2.64 825.05,-2.64 158.34,0 722.27,15.83 827.83,-13.19 19.45,-58.06 19.45,-818.1 13.89,-973.8 -5.55,-71.25 -41.67,-65.98 -97.23,-97.64l-788.94 -424.88c-75,-36.95 -647.26,-15.83 -780.61,-15.83l0 97.64z"/>
   <path class="fil0" d="M1993.32 1492.87l0 205.84 -102.79 2.64 2.78 50.14 208.35 0c58.34,-2.64 36.11,13.2 44.45,-29.03 -16.67,-31.67 22.22,-13.19 -44.45,-21.11 -22.22,-2.64 -30.56,0 -58.34,-5.28l0 -200.57c77.78,-39.59 155.56,-68.62 155.56,-184.73l-361.13 -5.28c-5.56,121.39 69.45,155.7 155.57,187.37z"/>
   <path class="fil0" d="M6596.92 1324.03c11.02,-15.7 11.02,18.31 8.26,-28.78 0,-5.23 -5.51,-23.55 -8.26,-26.16 -46.82,36.63 -19.28,57.56 0,54.95z"/>
   <path class="fil0" d="M6503.28 1261.23c-22.04,26.16 -24.79,31.4 -8.26,57.56 35.8,-15.7 24.79,-23.55 8.26,-57.56z"/>
   <path class="fil0" d="M8895.62 980.94c134.96,-34.01 644.48,-219.78 732.62,-214.55l0 1007.34 -735.37 259.03 2.75 -1051.82zm-856.55 -217.16c77.12,-2.62 710.58,183.15 823.5,219.78l-2.76 1049.2c-27.54,0 -773.93,-232.86 -817.99,-256.41l-2.76 -1012.57zm820.75 -211.93l-2.75 395.08 -727.11 -209.32 729.86 -185.77zm33.05 -10.47l661 198.85c-49.57,28.78 -581.13,188.39 -663.76,204.09l2.76 -402.94zm-944.69 387.24c0,279.96 0,559.92 2.76,839.88 0,91.58 24.79,86.34 101.9,107.27l470.97 151.75c101.9,31.4 220.33,78.49 322.24,102.04 57.84,15.7 520.54,-164.84 608.68,-196.24 190.04,-70.64 264.4,-62.79 264.4,-154.37 0,-334.91 8.26,-758.77 -5.51,-1080.6 -46.82,-28.78 -542.58,-170.07 -663.76,-204.09 -99.15,-26.16 -123.94,-57.56 -234.11,-26.16l-688.55 177.92c-220.34,54.94 -179.02,2.61 -179.02,282.58z"/>
  </g>
 </g>
</svg>
