<?xml version="1.0" encoding="utf-8"?>
<!-- Generator: Adobe Illustrator 25.2.3, SVG Export Plug-In . SVG Version: 6.00 Build 0)  -->
<svg version="1.1" id="Capa_1" xmlns:xodm="http://www.corel.com/coreldraw/odm/2003"
	 xmlns="http://www.w3.org/2000/svg" xmlns:xlink="http://www.w3.org/1999/xlink" x="0px" y="0px" viewBox="0 0 728.5 609.5"
	 style="enable-background:new 0 0 728.5 609.5;" xml:space="preserve">
<style type="text/css">
	.st0{fill-rule:evenodd;clip-rule:evenodd;fill:#FEFEFE;}
	.st1{fill:#FEFEFE;}
	.st2{font-family:'ArialMT';}
	.st3{font-size:59.9995px;}
	.st4{font-size:53.8282px;}
	.st5{opacity:0.72;}
	.st6{fill-rule:evenodd;clip-rule:evenodd;fill:#FFFFFF;}
</style>
<path class="st0" d="M224,437.2c-7.6-28.2-1.5-216.3-1.5-260.4c41.1,4.3,317.5,44.8,335.8,52.8c5.3,18.1,3,220.6,3.8,258.9
	L224,437.2L224,437.2z M665.6,151.5c12.2-5.8,23.6-18.1,37.3-24.6c0,81.7,0.8,164.9-1.5,246.6c0,20.3-13.7,22.4-27.4,33.3
	c-12.9,10.9-20.6,15.2-34.3,25.3c-12.9,9.4-59.4,47-69.3,48.5l-1.5-253.2c6.1-7.2,42.6-34.7,51-37.6l0.8,49.2
	c12.2-5.8,37.3-21,43.4-29.7L665.6,151.5L665.6,151.5z M233.9,169.6c9.1-10.1,22.8-16.6,34.3-25.3c18.3-13.7,16.8-11.6,41.9-7.2
	c33.5,5.1,66.2,9.4,99.7,14.5c67.8,10.1,134.8,20.3,201.8,30.4c-9.1,10.1-21.3,17.4-32.7,26.8c-19,15.2-16.8,11.6-44.9,7.2
	L233.9,169.6L233.9,169.6z M333.7,98.7c34.3-35.4,48.7-24.6,78.4-20.3l281,41.2c-2.3,2.9-23.6,21-28.9,23.1
	C650.4,147.9,356.5,101.6,333.7,98.7L333.7,98.7z M199.6,456.7c25.9,10.1,261.9,42,322.8,51.4c65.5,9.4,46.4,5.8,88.3-23.9
	l100.5-73.8c21.3-15.2,15.2-16.6,15.2-60c0-36.9,5.3-228.6-1.5-248.1c-18.3-10.1-265-42-308.4-48.5c-44.2-6.5-48.7-13-73.1,5.1
	L240,132.7c-9.9,8-16,12.3-26.6,19.5c-11.4,8-16,8-16,26C197.4,233.9,194.3,414.8,199.6,456.7L199.6,456.7z"/>
<text transform="matrix(0.9923 0.124 -0.124 0.9923 277.5365 574.4755)" class="st1 st2 st3">Largo</text>
<text transform="matrix(1 0 0 1 36.0845 321.8858)" class="st1 st2 st3">Alto</text>
<text transform="matrix(0.8439 -0.5365 0.5365 0.8439 181.9765 105.8111)" class="st1 st2 st4">Ancho</text>
<g>
	<path class="st1" d="M174.8,176.7h-24.1l12.1-18.6L174.8,176.7z M150.7,158.1v-2.5h24.1v5h-24.1V158.1z M160.2,440.8V176.1h5v264.7
		L160.2,440.8L160.2,440.8z M174.8,440.2l-12,18.6l-12.1-18.6H174.8z M150.7,458.7v-2.5h24.1v5h-24.1V458.7L150.7,458.7z"/>
</g>
<g>
	<path class="st1" d="M331.6,56.1l-13.4-20l22.1-0.3L331.6,56.1L331.6,56.1z M333.6,25.7l2.1-1.4l13.4,20l-4.2,2.8l-13.4-20
		L333.6,25.7L333.6,25.7z M196.4,129.2L324,43.7l2.8,4.2l-127.5,85.6L196.4,129.2z M205,141l-22.1,0.4l8.7-20.4L205,141z
		 M176.2,131.3l2.1-1.4l13.4,20l-4.2,2.8l-13.4-20L176.2,131.3L176.2,131.3z"/>
</g>
<g>
	<path class="st1" d="M208.4,489.4l-3.3,23.8l-16.7-14.5L208.4,489.4L208.4,489.4z M186.7,510.7l-2.5-0.3l3.3-23.9l5,0.7l-3.3,23.9
		L186.7,510.7L186.7,510.7z M557.2,552.7l-351.4-48.9l0.7-5l351.4,48.9L557.2,552.7z M558.6,538.1l16.7,14.5l-20.1,9.4L558.6,538.1
		L558.6,538.1z M573.7,564.6l-2.5-0.3l3.3-23.9l5,0.7l-3.3,23.9L573.7,564.6L573.7,564.6z"/>
</g>
<g id="Capa_2_1_" class="st5">
	<g id="BN">
		<g id="Capa_1-2">
			<path class="st6" d="M443,352.3l77.5,9.5c5.9,0.7,10.7,6.1,10.7,12v1.3c-0.3-0.3-52.6-6.6-53.4-6.7c-7.7-0.9-13-1-17.9,2.9
				s-7.3,9.6-7.3,16.9c-0.1,3.6,1,7.3,3.2,10.5c2.1,3,6.1,6.4,11.9,10.1c0.3,0.2,0.8,0.5,1.4,0.8c5.9,3.8,8.9,7.1,8.9,9.7
				c0,1.8-0.8,3.5-2.2,4.5c-1.7,1.1-3.8,1.4-5.9,1.1c-3.1-0.4-37.2-4.8-37.4-4.7v-58.7C432.3,355.7,437.1,351.6,443,352.3z
				 M531.2,389.7v61.6c0,5.9-4.8,10.1-10.7,9.4l-77.5-9.5c-5.9-0.7-10.7-6.1-10.7-12v-2.9c15.2,2.7,23,4.5,35.2,6
				c9.3,1.1,16.7-0.3,22.2-4.3c5.4-4,8.1-9.9,8.1-17.8c0.1-3.9-0.9-7.9-3-11.4c-2-3.2-5.6-6.5-10.7-10c-1-0.7-2.3-1.6-4.1-2.7
				c-5-3.2-7.5-5.8-7.5-7.8c0-1.7,0.2-3.9,1.5-4.8c0.8-0.7,1.9-1.1,3-1C489.6,383.7,523.2,389.1,531.2,389.7L531.2,389.7z"/>
		</g>
	</g>
</g>
</svg>
